<svg width="53" height="53" viewBox="0 0 53 53" fill="none" xmlns="http://www.w3.org/2000/svg">
<path d="M33.1768 50.0973H20.1338C19.5179 50.0973 19.0469 50.6365 19.0469 51.3416C19.0469 52.0467 19.5179 52.5859 20.1338 52.5859H33.1768C34.9883 52.5859 36.4375 50.9269 36.4375 48.8531V28.571C36.4375 27.783 36.365 26.9949 36.1839 26.2069C36.039 25.5433 35.4593 25.1285 34.8796 25.2944C34.2999 25.4603 33.9376 26.1239 34.0825 26.7876C34.1912 27.3682 34.2637 27.9489 34.2637 28.5296V29.3591H31.3652C30.7493 29.3591 30.2783 29.8983 30.2783 30.6034C30.2783 31.3085 30.7493 31.8477 31.3652 31.8477H34.2637V41.802H20.1338C19.5179 41.802 19.0469 42.3412 19.0469 43.0463C19.0469 43.7514 19.5179 44.2906 20.1338 44.2906H34.2637V48.8531C34.2637 49.5582 33.7927 50.0973 33.1768 50.0973Z" fill="#49BFA5"/>
<path d="M19.7456 50.0973H32.478C33.0793 50.0973 33.5391 50.6365 33.5391 51.3416C33.5391 52.0467 33.0793 52.5859 32.478 52.5859H19.7456C17.9772 52.5859 16.5625 50.9269 16.5625 48.8531V28.571C16.5625 27.783 16.6332 26.9949 16.8101 26.2069C16.9515 25.5433 17.5174 25.1285 18.0833 25.2944C18.6492 25.4603 19.0029 26.1239 18.8614 26.7876C18.7553 27.3682 18.6846 27.9489 18.6846 28.5296V29.3591H16.9162C17.5174 29.3591 17.9772 29.8983 17.9772 30.6034C17.9772 31.3085 17.5174 31.8477 16.9162 31.8477H18.6846V41.802H32.478C33.0793 41.802 33.5391 42.3412 33.5391 43.0463C33.5391 43.7514 33.0793 44.2906 32.478 44.2906H18.6846V48.8531C18.6846 49.5582 19.1444 50.0973 19.7456 50.0973Z" fill="#49BFA5"/>
<path d="M48.0727 4.92734C47.5758 4.43047 46.7891 4.43047 46.3336 4.92734L32.4211 18.8398L32.3383 18.6328C31.7586 17.5977 31.4688 16.4383 31.4688 15.2789V1.65625C31.4688 0.952344 30.9305 0.414062 30.2266 0.414062H22.7734C22.0695 0.414062 21.5312 0.952344 21.5312 1.65625V6.625V15.2789C21.5312 16.4383 21.2414 17.6391 20.6617 18.6328L17.7219 24.0156C16.9766 25.4234 16.5625 26.9969 16.5625 28.5703V34.657L4.92734 46.2922C4.43047 46.7891 4.43047 47.5758 4.92734 48.0312C5.17578 48.2797 5.50703 48.4039 5.79688 48.4039C6.08672 48.4039 6.41797 48.2797 6.66641 48.0312L48.0727 6.625C48.5695 6.16953 48.5695 5.42422 48.0727 4.92734ZM24.0156 2.89844H28.9844V5.38281H24.0156V2.89844ZM19.0469 32.2141V28.6117C19.0469 27.4523 19.3367 26.2516 19.9164 25.2578L22.8563 19.875C23.6016 18.4672 24.0156 16.8937 24.0156 15.3203V7.86719H28.9844V15.2789C28.9844 16.8523 29.3984 18.4258 30.1438 19.8336L30.5992 20.6617L19.0469 32.2141Z" fill="#49BFA5"/>
</svg>
