<svg width="48" height="48" viewBox="0 0 48 48" fill="none" xmlns="http://www.w3.org/2000/svg">
<path d="M24 37V45" stroke="#49BFA5" stroke-width="2" stroke-miterlimit="10"/>
<path d="M15 44H33" stroke="#49BFA5" stroke-width="2" stroke-miterlimit="10" stroke-linecap="round"/>
<path d="M24 37.5C33.1127 37.5 40.5 30.1127 40.5 21C40.5 11.8873 33.1127 4.5 24 4.5C14.8873 4.5 7.5 11.8873 7.5 21C7.5 30.1127 14.8873 37.5 24 37.5Z" stroke="#49BFA5" stroke-width="2" stroke-miterlimit="10" stroke-linecap="round" stroke-linejoin="round"/>
<path d="M24 29.5C28.6944 29.5 32.5 25.6944 32.5 21C32.5 16.3056 28.6944 12.5 24 12.5C19.3056 12.5 15.5 16.3056 15.5 21C15.5 25.6944 19.3056 29.5 24 29.5Z" stroke="#49BFA5" stroke-width="2" stroke-miterlimit="10" stroke-linecap="round" stroke-linejoin="round"/>
<path d="M30.5 14.5L35.5 9.5" stroke="#49BFA5" stroke-width="2" stroke-miterlimit="10" stroke-linecap="round" stroke-linejoin="round"/>
<path d="M17.5 14.5L12.5 9.5" stroke="#49BFA5" stroke-width="2" stroke-miterlimit="10" stroke-linecap="round" stroke-linejoin="round"/>
<path d="M17.5 27.5L12.5 32.5" stroke="#49BFA5" stroke-width="2" stroke-miterlimit="10" stroke-linecap="round" stroke-linejoin="round"/>
<path d="M30.5 27.5L35.5 32.5" stroke="#49BFA5" stroke-width="2" stroke-miterlimit="10" stroke-linecap="round" stroke-linejoin="round"/>
</svg>
