<svg width="46" height="46" viewBox="0 0 46 46" fill="none" xmlns="http://www.w3.org/2000/svg">
<rect width="46" height="46" rx="23" fill="#D7273D"></rect>
<path d="M11.8627 23.9679C8.35216 17.7943 14.1627 8.59449 22.8785 15.0102C31.5943 9.3206 36.4364 16.4627 34.8627 21.9101C33.5914 26.3109 26.5525 31.4228 23.8948 33.2245C23.2747 33.645 22.4707 33.6592 21.8516 33.2371C18.7377 31.114 15.0329 27.5354 14.1627 26.7522M10.4102 23.9679H15.8872C16.3209 23.9679 16.7243 23.7456 16.9558 23.3789V23.3789C17.4548 22.5889 18.6089 22.5947 19.0999 23.3896L19.1577 23.4832C19.7385 24.4235 21.1456 24.2889 21.5375 23.2555L21.7305 22.7467C22.2548 21.3646 24.2122 21.3708 24.7277 22.7562L24.7776 22.8903C25.0187 23.5382 25.6371 23.9679 26.3284 23.9679H29.5365" stroke="white" stroke-width="2" stroke-linecap="round"></path>
</svg>