<svg width="46" height="46" viewBox="0 0 46 46" fill="none" xmlns="http://www.w3.org/2000/svg">
<rect width="46" height="46" rx="23" fill="#333"></rect>
<path d="M14.4799 23.9003V23.9003C14.4463 24.7714 15.0175 25.5414 15.8671 25.7367C21.6889 27.0751 31.9012 26.6986 32.2642 24.052M14.4799 23.9003C14.6025 20.7123 15.4052 15.9872 18.2221 16.1529C22.3379 16.395 21.8968 16.7006 24.88 15.5479C30.2063 13.4899 31.5379 17.6057 32.2642 23.4159C32.2923 23.6404 32.2916 23.8523 32.2642 24.052M14.4799 23.9003C11.0062 24.7477 5.72947 26.9266 12.4116 28.8635C20.7642 31.2845 30.3203 30.3842 34.016 28.8635C37.7116 27.3427 40.3747 26.1405 32.2642 24.052" stroke="white" stroke-width="2" stroke-linecap="round"></path>
</svg>