<svg width="46" height="46" viewBox="0 0 46 46" fill="none" xmlns="http://www.w3.org/2000/svg">
<rect y="0.000244141" width="46" height="46" rx="23" fill="#333"></rect>
<g clip-path="url(#clip0)">
<path d="M36.1107 15.5614H35.3846V14.8353C35.3846 14.4344 35.0595 14.1093 34.6585 14.1093C34.2575 14.1093 33.9324 14.4344 33.9324 14.8353V15.5614H20.0398H17.1354H14.231C13.83 15.5614 13.5049 15.8865 13.5049 16.2875C13.5049 16.6879 13.1792 17.0136 12.7788 17.0136C12.3778 17.0136 12.0527 17.3387 12.0527 17.7397V20.6441V22.0963C12.0527 22.4973 12.3778 22.8224 12.7788 22.8224C13.1648 22.8224 13.4815 23.1251 13.5037 23.5057L12.2968 31.9536C12.1094 33.2659 13.129 34.44 14.4532 34.44H17.3097C18.4025 34.44 19.3314 33.6226 19.4703 32.5387L19.9713 28.6312H22.9407C22.9417 28.6312 22.9426 28.6313 22.9436 28.6313C22.9492 28.6313 22.9547 28.6309 22.9603 28.6308C24.154 28.622 25.1225 27.6486 25.1225 26.4529V24.2746H33.2064C33.4814 24.2746 33.7328 24.1192 33.8558 23.8732L35.1073 21.3702H36.1107C36.5117 21.3702 36.8368 21.0451 36.8368 20.6441V16.2875C36.8368 15.8865 36.5117 15.5614 36.1107 15.5614ZM17.6588 17.0136H19.0324L18.0642 19.918H16.6907L17.6588 17.0136ZM13.5049 18.3414C14.123 18.1223 14.6136 17.6317 14.8327 17.0136H16.128L15.1599 19.918H13.5049V18.3414ZM20.7659 27.179C19.9652 27.179 19.3137 26.5275 19.3137 25.7268C19.3137 24.9261 19.9652 24.2746 20.7659 24.2746H20.7968C20.4983 25.2352 20.6089 26.2871 21.1403 27.179H20.7659ZM23.6703 26.4529C23.6703 26.7993 23.4263 27.0894 23.1012 27.1614C22.1182 26.5538 21.7946 25.2772 22.371 24.2746H23.6703V26.4529ZM32.7576 22.8224C31.9728 22.8224 21.2669 22.8224 20.7659 22.8224C19.1644 22.8224 17.8615 24.1253 17.8615 25.7268C17.8615 26.4832 18.1524 27.1728 18.6279 27.6902L18.0299 32.354C17.9836 32.7153 17.6739 32.9878 17.3097 32.9878H14.4532C14.0107 32.9878 13.6717 32.5976 13.7344 32.159C15.0344 23.0591 14.9571 23.6254 14.9571 23.5485C14.9571 22.6019 14.3502 21.7943 13.5049 21.4946V21.3702C14.1688 21.3702 33.0682 21.3702 33.4837 21.3702L32.7576 22.8224ZM35.3846 19.918C34.8812 19.918 20.8153 19.918 19.595 19.918L20.5632 17.0136H35.3846V19.918Z" fill="white"></path>
</g>
<defs>
<clipPath id="clip0">
<rect width="24.7841" height="24.7841" fill="white" transform="translate(12.0527 11.8821)"></rect>
</clipPath>
</defs>
</svg>