<svg width="44" height="42" viewBox="0 0 44 42" fill="none" xmlns="http://www.w3.org/2000/svg">
<path d="M23 0.15625C17.7531 0.15625 12.7578 2.09687 8.87656 5.65469C5.06719 9.17656 2.69531 13.9922 2.22812 19.1672C2.19219 19.7422 2.62344 20.2812 3.23438 20.3172C3.80938 20.3891 4.34844 19.9219 4.42031 19.3469C4.81563 14.7109 6.93594 10.4344 10.3859 7.27187C11.7156 6.05 13.1891 5.04375 14.8063 4.25312C14.9859 9.64375 16.7469 14.7828 19.8016 19.1672C16.3875 22.0781 12.2188 24.0906 7.69062 24.9172C7.11562 23.4797 5.67812 22.4734 4.025 22.4734C1.76094 22.4375 0 24.1984 0 26.3906C0 28.5828 1.76094 30.3438 3.95312 30.3438C5.89375 30.3438 7.54687 28.9063 7.83437 27.0375C12.7937 26.175 17.3219 23.9828 21.0234 20.8562C21.3828 21.2875 21.7422 21.7187 22.1375 22.15C22.425 22.4375 22.6766 22.725 22.9641 23.0125C22.7484 23.5156 22.6047 24.0547 22.6047 24.6297C22.6047 26.8219 24.3656 28.5828 26.5578 28.5828C27.5281 28.5828 28.4266 28.2234 29.1094 27.6484C29.9359 28.1156 30.7984 28.5469 31.6969 28.9062C29.4687 33.1109 26.3781 36.8125 22.5688 39.6875C16.7828 39.5797 11.5 36.8484 8.01406 32.1766C7.65469 31.7094 6.97188 31.6016 6.50469 31.9609C6.0375 32.3203 5.92969 33.0031 6.28906 33.4703C10.2781 38.7891 16.3516 41.8438 23 41.8438C34.5 41.8438 43.8438 32.5 43.8438 21C43.8438 9.5 34.5 0.15625 23 0.15625ZM3.95312 28.1875C2.94688 28.1875 2.15625 27.3969 2.15625 26.3906C2.15625 25.3844 2.94688 24.5938 3.95312 24.5938C4.95937 24.5938 5.75 25.3844 5.75 26.3906C5.75 27.3969 4.95937 28.1875 3.95312 28.1875ZM21.3469 17.6578C18.4719 13.4531 16.9266 8.49375 16.8906 3.35469C18.8312 2.67187 20.8797 2.3125 23 2.3125C24.9047 2.3125 26.7734 2.6 28.4984 3.13906C27.7438 8.78125 25.1203 13.8125 21.3469 17.6578ZM26.5938 26.3906C25.5875 26.3906 24.7969 25.6 24.7969 24.5938C24.7969 23.5875 25.5875 22.7969 26.5938 22.7969C27.6 22.7969 28.3906 23.5875 28.3906 24.5938C28.3906 25.6 27.6 26.3906 26.5938 26.3906ZM30.3672 25.8156C30.475 25.4203 30.5469 25.025 30.5469 24.5938C30.5469 22.4016 28.7859 20.6406 26.5938 20.6406C25.7672 20.6406 25.0125 20.8922 24.3656 21.3234C24.15 21.1078 23.9344 20.8922 23.7188 20.6766C23.3594 20.2453 23 19.8141 22.6406 19.3828C26.7734 15.2859 29.6484 9.93125 30.5828 3.92969C37.1234 6.84063 41.6875 13.3812 41.6875 21C41.6875 23.7672 41.0766 26.3906 39.9984 28.7625C38.2016 28.5828 36.4406 28.2234 34.7156 27.6844C36.2969 24.1984 37.3391 20.3891 37.8781 16.4C37.95 15.825 37.5547 15.2859 36.9438 15.1781C36.3688 15.1062 35.8297 15.5016 35.7219 16.1125C35.2188 19.9578 34.1766 23.6234 32.6672 26.9297C31.8766 26.6063 31.1219 26.2109 30.3672 25.8156ZM26.3062 39.4C29.325 36.6328 31.8406 33.3266 33.7812 29.625C35.4344 30.1641 37.1594 30.5594 38.8844 30.8109C36.1531 35.2313 31.625 38.4297 26.3062 39.4Z" fill="#F9DD40"/>
</svg>
