<svg width="50" height="50" viewBox="0 0 50 50" fill="none" xmlns="http://www.w3.org/2000/svg">
<path d="M33 25H41M25 3C19.1652 3 13.5695 5.31785 9.44365 9.44365C5.31785 13.5695 3 19.1652 3 25C3 30.8348 5.31785 36.4306 9.44365 40.5564C13.5695 44.6822 19.1652 47 25 47C30.8348 47 36.4306 44.6822 40.5564 40.5564C44.6822 36.4306 47 30.8348 47 25C47 19.1652 44.6822 13.5695 40.5564 9.44365C36.4306 5.31785 30.8348 3 25 3V3ZM37 21V29V21Z" stroke="#E45851" stroke-width="2" stroke-miterlimit="10"/>
<path d="M17 17.25H15.5C15.072 19.648 13.399 20.113 11 20.199V21.741L15 21.75V32.75H17V17.25ZM24.829 17C29.364 17 29.62 20.251 29.62 21.021C29.62 22.989 28.08 24.016 27.481 24.272C28.422 24.529 30.305 25.47 30.305 28.208C30.305 32.229 26.626 32.999 25.086 32.999C21.065 32.999 19.696 30.432 19.696 28.208C19.696 25.556 21.578 24.614 22.434 24.272C21.75 24.015 20.209 22.989 20.209 21.021C20.209 19.567 21.235 17 24.829 17ZM25 31.374C27.139 31.374 28.251 29.748 28.251 28.294C28.251 27.61 27.567 25.299 25 25.299C22.519 25.299 21.663 27.01 21.663 28.294C21.663 30.519 23.374 31.374 25 31.374ZM25 23.674C27.139 23.674 27.567 21.963 27.567 21.107C27.567 20.337 27.225 18.711 24.915 18.711C22.348 18.711 22.177 20.764 22.177 21.107C22.176 21.535 22.348 23.674 25 23.674Z" fill="#E45851"/>
</svg>
