<svg width="46" height="46" viewBox="0 0 46 46" fill="none" xmlns="http://www.w3.org/2000/svg">
<rect width="46" height="46" rx="23" fill="#D7273D"></rect>
<path fill-rule="evenodd" clip-rule="evenodd" d="M22.3673 16.6667C18.4517 14.1179 15.6538 14.5967 14.0216 15.9258C12.2911 17.3349 11.5488 19.9255 12.201 22.1831C12.5175 23.2785 13.3237 24.5225 14.455 25.8123C15.5727 27.0868 16.9422 28.3328 18.2859 29.435C19.6266 30.5348 20.924 31.4768 21.8872 32.1444C22.3111 32.4382 22.6692 32.6781 22.9364 32.8541C23.2083 32.6777 23.5737 32.4365 24.0068 32.1406C24.9842 31.4728 26.3003 30.5307 27.6597 29.4308C29.0222 28.3284 30.4099 27.0822 31.5412 25.8078C32.6866 24.5176 33.4993 23.275 33.8148 22.1831C34.4635 19.9374 33.6957 17.3469 31.9257 15.9313C30.2507 14.5919 27.4088 14.1209 23.4978 16.6666C23.3311 16.7807 23.1338 16.841 22.9341 16.8415C22.7914 16.8419 22.6475 16.8118 22.5124 16.749C22.4621 16.7258 22.4135 16.6983 22.3673 16.6667ZM22.9326 14.661C18.743 12.1377 15.156 12.4229 12.7587 14.3749C10.3535 16.3335 9.42432 19.7776 10.2796 22.7382C10.7169 24.2519 11.749 25.7602 12.9514 27.1311C14.1672 28.5174 15.6266 29.8405 17.0175 30.9814C18.4114 32.1247 19.7544 33.0996 20.7479 33.7882C21.2453 34.1329 21.6564 34.4068 21.9443 34.5952C22.0883 34.6894 22.2015 34.7623 22.2794 34.8121C22.3184 34.837 22.3485 34.8561 22.3692 34.8692L22.3837 34.8783C22.5546 34.9903 22.7561 35.0471 22.9593 35.0418C23.0827 35.0386 23.2067 35.0125 23.3249 34.962C23.3785 34.9391 23.4303 34.9116 23.4796 34.8794L23.4905 34.8726C23.5115 34.8596 23.5421 34.8405 23.5816 34.8156C23.6606 34.7659 23.7755 34.693 23.9216 34.5988C24.2136 34.4104 24.6307 34.1366 25.1351 33.7919C26.1427 33.1035 27.5048 32.1287 28.9177 30.9856C30.3275 29.8449 31.8063 28.5219 33.0369 27.1356C34.2534 25.7651 35.2979 24.2554 35.7362 22.7382C36.5949 19.7657 35.6158 16.3215 33.1748 14.3694C30.7462 12.4272 27.1289 12.1353 22.9326 14.661Z" fill="white"></path>
</svg>