<svg width="46" height="46" viewBox="0 0 46 46" fill="none" xmlns="http://www.w3.org/2000/svg">
<g clip-path="url(#clip0)">
<path d="M4.6001 12.88H41.4001" stroke="#F9DC38" stroke-width="2" stroke-miterlimit="10"/>
<path d="M7.35994 9.20001C7.11594 9.20001 6.88194 9.29694 6.7094 9.46947C6.53687 9.64201 6.43994 9.87601 6.43994 10.12C6.43994 10.364 6.53687 10.598 6.7094 10.7706C6.88194 10.9431 7.11594 11.04 7.35994 11.04C7.60394 11.04 7.83795 10.9431 8.01048 10.7706C8.18301 10.598 8.27994 10.364 8.27994 10.12C8.27994 9.87601 8.18301 9.64201 8.01048 9.46947C7.83795 9.29694 7.60394 9.20001 7.35994 9.20001ZM10.1199 9.20001C9.87594 9.20001 9.64194 9.29694 9.4694 9.46947C9.29687 9.64201 9.19994 9.87601 9.19994 10.12C9.19994 10.364 9.29687 10.598 9.4694 10.7706C9.64194 10.9431 9.87594 11.04 10.1199 11.04C10.3639 11.04 10.5979 10.9431 10.7705 10.7706C10.943 10.598 11.0399 10.364 11.0399 10.12C11.0399 9.87601 10.943 9.64201 10.7705 9.46947C10.5979 9.29694 10.3639 9.20001 10.1199 9.20001ZM12.8799 9.20001C12.6359 9.20001 12.4019 9.29694 12.2294 9.46947C12.0569 9.64201 11.9599 9.87601 11.9599 10.12C11.9599 10.364 12.0569 10.598 12.2294 10.7706C12.4019 10.9431 12.6359 11.04 12.8799 11.04C13.1239 11.04 13.3579 10.9431 13.5305 10.7706C13.703 10.598 13.7999 10.364 13.7999 10.12C13.7999 9.87601 13.703 9.64201 13.5305 9.46947C13.3579 9.29694 13.1239 9.20001 12.8799 9.20001ZM34.0399 24.84C39.6197 24.84 44.1599 28.7408 44.1599 33.5349C44.1599 37.8635 41.031 42.2308 34.0399 42.2308C33.5533 42.2308 32.5845 42.1535 32.0067 42.0689C31.9175 42.056 31.8283 42.0495 31.7399 42.0495C31.3756 42.0495 31.0177 42.1581 30.7123 42.3633L29.3663 43.2704C28.7021 43.6945 27.9882 43.9687 27.2356 44.0892C27.6846 43.2934 27.9265 42.6025 28.0553 42.1176L28.0903 41.9842C28.2752 41.2629 28.0075 40.5002 27.4104 40.0541C26.6625 39.4938 26.012 38.8424 25.483 38.123C24.4692 36.7347 23.9328 35.1477 23.9328 33.5349C23.9328 32.465 24.1647 31.4116 24.6219 30.4033C24.6311 30.3849 24.6403 30.3655 24.6495 30.3471C26.196 27.002 29.8825 24.84 34.0399 24.84ZM34.0399 23C29.0379 23 24.759 25.7251 22.9788 29.5743L22.9769 29.5753C22.4111 30.7989 22.0928 32.1338 22.0928 33.5349C22.0928 35.6243 22.8003 37.5701 23.9972 39.2086C24.6265 40.0633 25.3975 40.8462 26.3083 41.527C26.2991 41.5629 26.2889 41.6015 26.2779 41.6429C26.1445 42.1434 25.8529 42.9327 25.2153 43.849L24.724 44.5538C24.5281 44.8353 24.5051 45.2024 24.6633 45.506C24.8215 45.8096 25.1353 46 25.4784 46H26.3359C28.048 46 29.3921 45.437 30.3563 44.8215L31.7399 43.8895C32.3545 43.9797 33.4272 44.0708 34.0399 44.0708C41.8305 44.0708 45.9999 39.1791 45.9999 33.5349C45.9999 27.7261 40.6345 23 34.0399 23Z" fill="#F9DC38"/>
<path d="M21.0801 37.72H6.44018C5.93234 37.72 5.52018 37.3069 5.52018 36.8V9.2C5.52018 8.69308 5.93234 8.28 6.44018 8.28H39.5602C40.068 8.28 40.4802 8.69308 40.4802 9.2V22.5989C41.1279 22.9071 41.7387 23.2659 42.3202 23.6587V9.2C42.3202 7.67832 41.0819 6.44 39.5602 6.44H6.44018C4.9185 6.44 3.68018 7.67832 3.68018 9.2V36.8C3.68018 38.3217 4.9185 39.56 6.44018 39.56H22.0167C21.6459 38.9675 21.3359 38.352 21.0801 37.72Z" fill="#F9DC38"/>
<path d="M28.52 35.88H34.96M28.52 32.2H39.56H28.52Z" stroke="#F9DC38" stroke-width="2" stroke-miterlimit="10" stroke-linecap="round"/>
</g>
<defs>
<clipPath id="clip0">
<rect width="46" height="46" fill="white"/>
</clipPath>
</defs>
</svg>
