<?xml version="1.0" standalone="no"?>
<!DOCTYPE svg PUBLIC "-//W3C//DTD SVG 20010904//EN"
 "http://www.w3.org/TR/2001/REC-SVG-20010904/DTD/svg10.dtd">
<svg version="1.0" xmlns="http://www.w3.org/2000/svg"
 width="1280.000000pt" height="1280.000000pt" viewBox="0 0 1280.000000 1280.000000"
 preserveAspectRatio="xMidYMid meet">
<metadata>
Created by potrace 1.15, written by Peter Selinger 2001-2017
</metadata>
<g transform="translate(0.000000,1280.000000) scale(0.100000,-0.100000)"
fill="#000000" stroke="none">
<path d="M6035 12789 c-2023 -120 -3852 -1172 -4970 -2859 -307 -462 -538
-931 -719 -1458 -596 -1736 -413 -3653 500 -5249 863 -1509 2308 -2605 3992
-3028 1608 -404 3303 -171 4739 651 1604 917 2734 2486 3098 4299 303 1511 46
3091 -721 4432 -863 1509 -2308 2605 -3992 3028 -623 156 -1302 221 -1927 184z"/>
</g>
</svg>
